#tb 0: 1/15
#media_type 0: video
#codec_id 0: rawvideo
#dimensions 0: 320x165
#sar 0: 0/1
0,          0,          0,        1,    79360, 0x8537821b
0,          1,          1,        1,    79360, 0x110c4343
0,          2,          2,        1,    79360, 0xa85105bb
0,          3,          3,        1,    79360, 0x87431836
0,          4,          4,        1,    79360, 0x5c701720
0,          5,          5,        1,    79360, 0x20308ce4
0,          6,          6,        1,    79360, 0xe51d3794
0,          7,          7,        1,    79360, 0x80e6f1e0
0,          8,          8,        1,    79360, 0x5aff64cc
0,          9,          9,        1,    79360, 0x1a3d9ab3
0,         10,         10,        1,    79360, 0xe154a195
0,         11,         11,        1,    79360, 0x608dafdc
0,         12,         12,        1,    79360, 0x93edf73f
0,         13,         13,        1,    79360, 0x56d97281
0,         14,         14,        1,    79360, 0xe7a284e6
0,         15,         15,        1,    79360, 0xd4e5e513
0,         16,         16,        1,    79360, 0x0a952ab1
0,         17,         17,        1,    79360, 0x3b21c91c
0,         18,         18,        1,    79360, 0x943656cb
0,         19,         19,        1,    79360, 0xffbdb94b
0,         20,         20,        1,    79360, 0x74976e16
